<?xml version="1.0" encoding="UTF-8" standalone="no"?>
<!-- Created with Inkscape (http://www.inkscape.org/) -->
<svg
   xmlns:dc="http://purl.org/dc/elements/1.1/"
   xmlns:cc="http://creativecommons.org/ns#"
   xmlns:rdf="http://www.w3.org/1999/02/22-rdf-syntax-ns#"
   xmlns:svg="http://www.w3.org/2000/svg"
   xmlns="http://www.w3.org/2000/svg"
   xmlns:xlink="http://www.w3.org/1999/xlink"
   xmlns:sodipodi="http://sodipodi.sourceforge.net/DTD/sodipodi-0.dtd"
   xmlns:inkscape="http://www.inkscape.org/namespaces/inkscape"
   width="385.73779"
   height="139.22565"
   id="svg2773"
   sodipodi:version="0.32"
   inkscape:version="0.46"
   sodipodi:docname="drizzle-logotype.svg"
   inkscape:output_extension="org.inkscape.output.svg.inkscape"
   version="1.0">
  <defs
     id="defs2775">
    <filter
       inkscape:collect="always"
       id="filter3493"
       x="-0.26841506"
       width="1.5368301"
       y="-0.26841506"
       height="1.5268301">
      <feGaussianBlur
         inkscape:collect="always"
         stdDeviation="8.0250617"
         id="feGaussianBlur3495" />
    </filter>
    <linearGradient
       id="linearGradient3313">
      <stop
         id="stop3315"
         offset="0"
         style="stop-color:#ffffff;stop-opacity:0.80000001;" />
      <stop
         id="stop3317"
         offset="1"
         style="stop-color:#ffffff;stop-opacity:0;" />
    </linearGradient>
    <radialGradient
       inkscape:collect="always"
       xlink:href="#linearGradient3313"
       id="radialGradient4710"
       gradientUnits="userSpaceOnUse"
       cx="353.16199"
       cy="454.64709"
       fx="353.16199"
       fy="454.64709"
       r="35.877548" />
    <linearGradient
       inkscape:collect="always"
       xlink:href="#linearGradient4049"
       id="linearGradient4708"
       gradientUnits="userSpaceOnUse"
       x1="499.44635"
       y1="740.16034"
       x2="439.17792"
       y2="584.16034" />
    <linearGradient
       id="linearGradient3195">
      <stop
         style="stop-color:#ffffff;stop-opacity:1"
         offset="0"
         id="stop3197" />
      <stop
         style="stop-color:#ffffff;stop-opacity:0;"
         offset="1"
         id="stop3199" />
    </linearGradient>
    <linearGradient
       inkscape:collect="always"
       xlink:href="#linearGradient3195"
       id="linearGradient4706"
       gradientUnits="userSpaceOnUse"
       gradientTransform="matrix(0.1695944,0.4797147,-0.6354734,0.4456833,1182.7921,-48.46627)"
       x1="404.49457"
       y1="653.28308"
       x2="446.04788"
       y2="701.67688" />
    <filter
       height="1.1676906"
       y="-0.083845288"
       width="1.2245525"
       x="-0.11227623"
       id="filter4045"
       inkscape:collect="always">
      <feGaussianBlur
         id="feGaussianBlur4047"
         stdDeviation="6.1626364"
         inkscape:collect="always" />
    </filter>
    <clipPath
       id="clipPath4063"
       clipPathUnits="userSpaceOnUse">
      <path
         sodipodi:nodetypes="csscc"
         id="path4065"
         d="M 530.72222,668.39566 C 542.00637,701.51437 524.65865,734.25501 493.19179,744.97634 C 461.72492,755.69769 427.99598,740.35981 416.71183,707.2411 C 405.42767,674.1224 440.11315,626.53531 437.27418,583.96022 C 461.29072,619.81549 519.43806,635.27696 530.72222,668.39566 z"
         style="opacity:1;fill:#000000;fill-opacity:1;stroke:none;stroke-width:12;stroke-linecap:round;stroke-linejoin:miter;stroke-miterlimit:4;stroke-dasharray:none;stroke-dashoffset:9.99212623;stroke-opacity:1" />
    </clipPath>
    <linearGradient
       inkscape:collect="always"
       xlink:href="#linearGradient4049"
       id="linearGradient4704"
       gradientUnits="userSpaceOnUse"
       x1="499.44635"
       y1="740.16034"
       x2="439.17792"
       y2="584.16034" />
    <clipPath
       id="clipPath4154"
       clipPathUnits="userSpaceOnUse">
      <path
         sodipodi:nodetypes="csscc"
         id="path4156"
         d="M 530.72222,668.39566 C 542.00637,701.51437 524.65865,734.25501 493.19179,744.97634 C 461.72492,755.69769 427.99598,740.35981 416.71183,707.2411 C 405.42767,674.1224 440.11315,626.53531 437.27418,583.96022 C 461.29072,619.81549 519.43806,635.27696 530.72222,668.39566 z"
         style="opacity:0.62189056;fill:none;fill-opacity:1;stroke:url(#linearGradient4158);stroke-width:12;stroke-linecap:round;stroke-linejoin:miter;stroke-miterlimit:4;stroke-dasharray:none;stroke-dashoffset:9.99212623;stroke-opacity:1;filter:url(#filter4045)"
         clip-path="url(#clipPath4063)" />
    </clipPath>
    <linearGradient
       id="linearGradient4049"
       inkscape:collect="always">
      <stop
         id="stop4051"
         offset="0"
         style="stop-color:#000000;stop-opacity:1;" />
      <stop
         id="stop4053"
         offset="1"
         style="stop-color:#000000;stop-opacity:0;" />
    </linearGradient>
    <linearGradient
       inkscape:collect="always"
       xlink:href="#linearGradient4049"
       id="linearGradient4702"
       gradientUnits="userSpaceOnUse"
       gradientTransform="matrix(0.702847,0.1001749,0.1359205,1.0417171,48.996923,-82.660956)"
       x1="388.16043"
       y1="684.72186"
       x2="496.396"
       y2="698.13385" />
    <linearGradient
       id="linearGradient3373">
      <stop
         style="stop-color:#003366;stop-opacity:1;"
         offset="0"
         id="stop3375" />
      <stop
         style="stop-color:#0066ff;stop-opacity:1;"
         offset="1"
         id="stop3377" />
    </linearGradient>
    <linearGradient
       inkscape:collect="always"
       xlink:href="#linearGradient3373"
       id="linearGradient4700"
       gradientUnits="userSpaceOnUse"
       gradientTransform="matrix(-1.3584028,-0.9860832,-1.0378472,1.4297116,1782.0525,186.98596)"
       x1="356.29398"
       y1="434.41211"
       x2="353.31525"
       y2="490.66431" />
    <filter
       inkscape:collect="always"
       id="filter3651">
      <feGaussianBlur
         inkscape:collect="always"
         stdDeviation="3.5080469"
         id="feGaussianBlur3653" />
    </filter>
    <inkscape:perspective
       sodipodi:type="inkscape:persp3d"
       inkscape:vp_x="0 : 526.18109 : 1"
       inkscape:vp_y="0 : 1000 : 0"
       inkscape:vp_z="744.09448 : 526.18109 : 1"
       inkscape:persp3d-origin="372.04724 : 350.78739 : 1"
       id="perspective2781" />
  </defs>
  <sodipodi:namedview
     id="base"
     pagecolor="#ffffff"
     bordercolor="#666666"
     borderopacity="1.0"
     gridtolerance="10000"
     guidetolerance="10"
     objecttolerance="10"
     inkscape:pageopacity="0.0"
     inkscape:pageshadow="2"
     inkscape:zoom="1.4"
     inkscape:cx="189.51859"
     inkscape:cy="49.274891"
     inkscape:document-units="px"
     inkscape:current-layer="layer1"
     showgrid="false"
     inkscape:window-width="669"
     inkscape:window-height="701"
     inkscape:window-x="0"
     inkscape:window-y="22" />
  <metadata
     id="metadata2778">
    <rdf:RDF>
      <cc:Work
         rdf:about="">
        <dc:format>image/svg+xml</dc:format>
        <dc:type
           rdf:resource="http://purl.org/dc/dcmitype/StillImage" />
        <cc:license
           rdf:resource="http://creativecommons.org/licenses/by-sa/3.0/" />
        <dc:creator>
          <cc:Agent>
            <dc:title>J. A. (Zak) Greant</dc:title>
          </cc:Agent>
        </dc:creator>
        <dc:title>Drizzle Logotype</dc:title>
        <dc:date>2008-07-26</dc:date>
      </cc:Work>
      <cc:License
         rdf:about="http://creativecommons.org/licenses/by-sa/3.0/">
        <cc:permits
           rdf:resource="http://creativecommons.org/ns#Reproduction" />
        <cc:permits
           rdf:resource="http://creativecommons.org/ns#Distribution" />
        <cc:requires
           rdf:resource="http://creativecommons.org/ns#Notice" />
        <cc:requires
           rdf:resource="http://creativecommons.org/ns#Attribution" />
        <cc:permits
           rdf:resource="http://creativecommons.org/ns#DerivativeWorks" />
        <cc:requires
           rdf:resource="http://creativecommons.org/ns#ShareAlike" />
      </cc:License>
    </rdf:RDF>
  </metadata>
  <g
     inkscape:label="Layer 1"
     inkscape:groupmode="layer"
     id="layer1"
     transform="translate(-252.84539,-319.89221)">
    <g
       id="g4294"
       transform="matrix(0.9886952,-0.1499392,0.1499392,0.9886952,72.77635,-97.30805)"
       inkscape:export-filename="/Users/zag/Desktop/Clients/Drizzle/Graphics/drizzle-logo-1024x370.png"
       inkscape:export-xdpi="239.18007"
       inkscape:export-ydpi="239.18007">
      <g
         inkscape:export-ydpi="144.37"
         inkscape:export-xdpi="144.37"
         inkscape:export-filename="/Users/zag/Desktop/Clients/Drizzle/Graphics/drop+text+shadow+metal.png"
         transform="matrix(-1,0,0,1,1009.6437,36.783528)"
         id="g2833">
        <path
           inkscape:export-ydpi="115.00726"
           inkscape:export-xdpi="115.00726"
           inkscape:export-filename="/Users/zag/Desktop/C/Sort/Drizzle/Graphics/drop2.png"
           style="fill:url(#linearGradient4700);fill-opacity:1;stroke:none;stroke-width:8;stroke-linecap:round;stroke-linejoin:miter;stroke-miterlimit:4;stroke-dashoffset:9.99212623;stroke-opacity:1"
           d="M 779.9635,455.80261 C 759.40955,484.1172 766.32426,520.51884 793.22662,540.04762 C 820.12898,559.57643 856.88189,554.8737 877.43583,526.5591 C 897.98978,498.24452 878.88993,442.54165 894.16496,402.69982 C 860.63804,429.87223 800.51745,427.48802 779.9635,455.80261 z"
           id="path3612"
           sodipodi:nodetypes="csscc" />
        <path
           transform="matrix(-0.9554769,-0.2950659,-0.2950659,0.9554769,1484.2771,-26.236007)"
           inkscape:export-ydpi="115.00726"
           inkscape:export-xdpi="115.00726"
           inkscape:export-filename="/Users/zag/Desktop/C/Sort/Drizzle/Graphics/drop2.png"
           inkscape:transform-center-y="-6.1501091"
           inkscape:transform-center-x="-46.283661"
           style="opacity:0.75;fill:url(#linearGradient4702);fill-opacity:1;stroke:none;stroke-width:12.99100018;stroke-linecap:round;stroke-linejoin:miter;stroke-miterlimit:4;stroke-dasharray:none;stroke-dashoffset:9.99212623;stroke-opacity:1"
           d="M 435.75839,579.57049 C 422.25577,590.28069 431.67171,617.83332 426.84137,627.02663 C 417.96499,643.54734 408.06367,676.89105 410.19188,692.30112 C 412.52001,723.16107 432.15559,736.09449 444.44468,744.02214 C 457.33105,752.89614 473.25041,749.42535 483.53842,742.12706 C 498.87427,733.12745 506.46127,713.20206 501.43615,692.73124 C 497.04485,669.80537 476.6837,650.8851 466.06689,615.42988 C 461.8531,608.01527 443.74597,581.4354 435.75839,579.57049 z"
           id="path3614"
           sodipodi:nodetypes="cccccccc"
           clip-path="url(#clipPath4154)" />
        <path
           transform="matrix(-0.9554769,-0.2950659,-0.2950659,0.9554769,1484.2771,-26.236007)"
           inkscape:export-ydpi="115.00726"
           inkscape:export-xdpi="115.00726"
           inkscape:export-filename="/Users/zag/Desktop/C/Sort/Drizzle/Graphics/drop2.png"
           sodipodi:nodetypes="csscc"
           id="path3616"
           d="M 530.72222,668.39566 C 542.00637,701.51437 524.65865,734.25501 493.19179,744.97634 C 461.72492,755.69769 427.99598,740.35981 416.71183,707.2411 C 405.42767,674.1224 440.11315,626.53531 437.27418,583.96022 C 461.29072,619.81549 519.43806,635.27696 530.72222,668.39566 z"
           style="opacity:0.62189056;fill:none;fill-opacity:1;stroke:url(#linearGradient4704);stroke-width:12;stroke-linecap:round;stroke-linejoin:miter;stroke-miterlimit:4;stroke-dasharray:none;stroke-dashoffset:9.99212623;stroke-opacity:1;filter:url(#filter4045)"
           clip-path="url(#clipPath4063)" />
        <path
           inkscape:export-ydpi="115.00726"
           inkscape:export-xdpi="115.00726"
           inkscape:export-filename="/Users/zag/Desktop/C/Sort/Drizzle/Graphics/drop2.png"
           sodipodi:nodetypes="cccccccc"
           id="path3632"
           d="M 866.69949,448.59879 C 863.6309,440.38334 854.85619,438.70294 847.23127,438.81729 C 833.46347,438.89856 808.35626,444.13799 798.99504,450.80541 C 779.60165,462.93274 778.12098,475.5832 777.04917,486.10289 C 775.55855,497.32752 780.78312,507.46244 788.9947,511.45879 C 800.00668,518.0648 815.56875,515.99161 827.2691,505.74253 C 840.78621,495.04738 851.44604,480.2635 862.34029,466.27794 C 865.7776,461.0497 868.15198,454.30134 866.69949,448.59879 z"
           style="opacity:0.75;fill:url(#linearGradient4706);fill-opacity:1;stroke:none;stroke-width:12.99100018;stroke-linecap:round;stroke-linejoin:miter;stroke-miterlimit:4;stroke-dasharray:none;stroke-dashoffset:9.99212623;stroke-opacity:1"
           inkscape:transform-center-x="24.578867"
           inkscape:transform-center-y="22.233511" />
        <path
           transform="matrix(-0.9554769,-0.2950659,-0.2950659,0.9554769,1484.2771,-26.236007)"
           clip-path="url(#clipPath4063)"
           style="opacity:0.62189056;fill:none;fill-opacity:1;stroke:url(#linearGradient4708);stroke-width:12;stroke-linecap:round;stroke-linejoin:miter;stroke-miterlimit:4;stroke-dasharray:none;stroke-dashoffset:9.99212623;stroke-opacity:1;filter:url(#filter4045)"
           d="M 530.72222,668.39566 C 542.00637,701.51437 524.65865,734.25501 493.19179,744.97634 C 461.72492,755.69769 427.99598,740.35981 416.71183,707.2411 C 405.42767,674.1224 440.11315,626.53531 437.27418,583.96022 C 461.29072,619.81549 519.43806,635.27696 530.72222,668.39566 z"
           id="path3638"
           sodipodi:nodetypes="csscc"
           inkscape:export-filename="/Users/zag/Desktop/C/Sort/Drizzle/Graphics/drop2.png"
           inkscape:export-xdpi="115.00726"
           inkscape:export-ydpi="115.00726" />
      </g>
      <path
         sodipodi:type="arc"
         style="fill:url(#radialGradient4710);fill-opacity:1;stroke:none;stroke-width:8;stroke-linecap:round;stroke-linejoin:miter;stroke-miterlimit:4;stroke-dasharray:none;stroke-dashoffset:9.99212623;stroke-opacity:1;filter:url(#filter3493)"
         id="path3618"
         sodipodi:cx="353.16199"
         sodipodi:cy="454.64709"
         sodipodi:rx="35.877548"
         sodipodi:ry="35.877548"
         d="M 389.03954,454.64709 A 35.877548,35.877548 0 1 1 317.28444,454.64709 A 35.877548,35.877548 0 1 1 389.03954,454.64709 z"
         transform="matrix(-1.3583192,0,0,-0.8071822,660.18198,927.24703)"
         inkscape:export-filename="/Users/zag/Desktop/Clients/Drizzle/Graphics/drop+text+shadow+metal.png"
         inkscape:export-xdpi="144.37"
         inkscape:export-ydpi="144.37" />
    </g>
    <path
       transform="matrix(0.8894808,0,0,0.8894808,-418.55085,-65.31289)"
       style="font-size:120px;font-style:normal;font-variant:normal;font-weight:normal;font-stretch:normal;text-align:start;line-height:100%;writing-mode:lr-tb;text-anchor:start;fill:#000000;fill-opacity:1;stroke:none;stroke-width:4;stroke-linecap:butt;stroke-linejoin:miter;stroke-miterlimit:4;stroke-opacity:1;font-family:Georgia;-inkscape-font-specification:Georgia"
       d="M 956.39453,500.66994 C 956.39448,502.66218 955.9062,504.43952 954.92969,506.00197 C 953.95308,507.52546 952.44917,508.28717 950.41797,508.28713 C 948.23043,508.28717 946.55074,507.72077 945.37891,506.58791 C 944.24606,505.45514 943.67965,504.20515 943.67969,502.83791 C 943.67965,501.97859 943.73825,501.19734 943.85547,500.49416 C 944.01168,499.79109 944.1484,499.08796 944.26562,498.38479 C 942.42965,498.38484 940.28122,499.12703 937.82031,500.61135 C 935.35935,502.09577 933.26951,504.20515 931.55078,506.93947 L 931.55078,540.57229 C 931.55076,541.93948 931.80466,543.05276 932.3125,543.91213 C 932.85935,544.77151 933.69919,545.41604 934.83203,545.84572 C 935.80857,546.23635 937.05856,546.52932 938.58203,546.72463 C 940.1445,546.91995 941.49215,547.05667 942.625,547.13479 L 942.625,551.00197 L 912.15625,551.00197 L 912.15625,547.13479 C 913.05468,547.05667 913.97265,546.97854 914.91016,546.90041 C 915.88671,546.82229 916.72655,546.66604 917.42969,546.43166 C 918.52343,546.0801 919.32421,545.47464 919.83203,544.61526 C 920.37889,543.71683 920.65233,542.56448 920.65234,541.15822 L 920.65234,505.47463 C 920.65233,504.26374 920.35936,503.07233 919.77344,501.90041 C 919.22655,500.72859 918.4453,499.79109 917.42969,499.08791 C 916.68749,498.61921 915.80859,498.28718 914.79297,498.09182 C 913.77734,497.8575 912.68359,497.70125 911.51172,497.62307 L 911.51172,493.81447 L 930.73047,492.52541 L 931.55078,493.34572 L 931.55078,501.49026 L 931.84375,501.49026 C 934.2656,498.32625 936.96091,495.9239 939.92969,494.28322 C 942.8984,492.64266 945.61324,491.82235 948.07422,491.82229 C 950.53511,491.82235 952.5273,492.62313 954.05078,494.22463 C 955.61323,495.82625 956.39448,497.97468 956.39453,500.66994 M 989.20703,551.00197 L 961.25781,551.00197 L 961.25781,547.13479 C 962.15624,547.05667 963.07421,546.97854 964.01172,546.90041 C 964.98827,546.82229 965.82812,546.66604 966.53125,546.43166 C 967.62499,546.0801 968.42577,545.47464 968.93359,544.61526 C 969.48046,543.71683 969.75389,542.56448 969.75391,541.15822 L 969.75391,505.47463 C 969.75389,504.22468 969.46092,503.09187 968.875,502.07619 C 968.32811,501.02156 967.54686,500.14265 966.53125,499.43947 C 965.78905,498.97078 964.71484,498.58015 963.30859,498.2676 C 961.90234,497.91609 960.61328,497.70125 959.44141,497.62307 L 959.44141,493.81447 L 979.83203,492.52541 L 980.65234,493.34572 L 980.65234,540.4551 C 980.65232,541.8223 980.90623,542.95511 981.41406,543.85354 C 981.96091,544.75198 982.80076,545.41604 983.93359,545.84572 C 984.79294,546.19729 985.63278,546.49026 986.45312,546.72463 C 987.27341,546.91995 988.19137,547.05667 989.20703,547.13479 L 989.20703,551.00197 M 981.82422,469.73244 C 981.82419,471.95908 981.08201,473.91221 979.59766,475.59182 C 978.15232,477.23252 976.35545,478.05283 974.20703,478.05276 C 972.21483,478.05283 970.47655,477.27158 968.99219,475.70901 C 967.54686,474.10752 966.82421,472.29112 966.82422,470.25979 C 966.82421,468.11143 967.54686,466.23643 968.99219,464.63479 C 970.47655,463.03331 972.21483,462.23253 974.20703,462.23244 C 976.43357,462.23253 978.24998,462.99425 979.65625,464.5176 C 981.10154,466.00206 981.82419,467.74034 981.82422,469.73244 M 1041.8242,551.00197 L 995.06641,551.00197 L 995.06641,547.89651 L 1027.7617,497.97463 L 1019.6758,497.97463 C 1016.2773,497.97468 1013.6211,498.03328 1011.707,498.15041 C 1009.793,498.26765 1008.0351,498.65828 1006.4336,499.32229 C 1005.3398,499.75203 1004.3047,500.98249 1003.3281,503.01369 C 1002.3906,505.04499 1001.5703,507.70124 1000.8672,510.98244 L 997.29297,510.98244 L 997.29297,493.22854 L 1041.4727,493.22854 L 1041.4727,495.63088 L 1008.25,546.25588 C 1009.6562,546.29495 1011.1992,546.33401 1012.8789,546.37307 C 1014.5586,546.37307 1016.375,546.37307 1018.3281,546.37307 C 1019.8906,546.37307 1021.5117,546.35354 1023.1914,546.31447 C 1024.9101,546.27542 1027.0976,546.17776 1029.7539,546.02151 C 1031.3164,545.94339 1032.4882,545.41604 1033.2695,544.43947 C 1034.0898,543.46292 1034.7148,542.34964 1035.1445,541.09963 C 1035.5742,539.96683 1036.082,538.40433 1036.668,536.41213 C 1037.2929,534.41996 1037.8398,532.48637 1038.3086,530.61135 L 1041.8242,530.61135 L 1041.8242,551.00197 M 1095.2617,551.00197 L 1048.5039,551.00197 L 1048.5039,547.89651 L 1081.1992,497.97463 L 1073.1133,497.97463 C 1069.7148,497.97468 1067.0586,498.03328 1065.1445,498.15041 C 1063.2305,498.26765 1061.4726,498.65828 1059.8711,499.32229 C 1058.7773,499.75203 1057.7422,500.98249 1056.7656,503.01369 C 1055.8281,505.04499 1055.0078,507.70124 1054.3047,510.98244 L 1050.7305,510.98244 L 1050.7305,493.22854 L 1094.9102,493.22854 L 1094.9102,495.63088 L 1061.6875,546.25588 C 1063.0937,546.29495 1064.6367,546.33401 1066.3164,546.37307 C 1067.9961,546.37307 1069.8125,546.37307 1071.7656,546.37307 C 1073.3281,546.37307 1074.9492,546.35354 1076.6289,546.31447 C 1078.3476,546.27542 1080.5351,546.17776 1083.1914,546.02151 C 1084.7539,545.94339 1085.9257,545.41604 1086.707,544.43947 C 1087.5273,543.46292 1088.1523,542.34964 1088.582,541.09963 C 1089.0117,539.96683 1089.5195,538.40433 1090.1055,536.41213 C 1090.7304,534.41996 1091.2773,532.48637 1091.7461,530.61135 L 1095.2617,530.61135 L 1095.2617,551.00197 M 1130.0078,551.00197 L 1101.8242,551.00197 L 1101.8242,547.13479 C 1102.7227,547.05667 1103.6797,546.97854 1104.6953,546.90041 C 1105.7109,546.78323 1106.5508,546.62698 1107.2148,546.43166 C 1108.3086,546.0801 1109.1289,545.47464 1109.6758,544.61526 C 1110.2226,543.71683 1110.4961,542.56448 1110.4961,541.15822 L 1110.4961,474.24416 C 1110.4961,472.83799 1110.1836,471.5294 1109.5586,470.31838 C 1108.9726,469.06846 1108.1914,468.0919 1107.2148,467.38869 C 1106.5117,466.92003 1105.2226,466.49034 1103.3477,466.09963 C 1101.4727,465.70909 1099.9687,465.47472 1098.8359,465.39651 L 1098.8359,461.64651 L 1120.5742,460.29885 L 1121.3945,461.17776 L 1121.3945,540.4551 C 1121.3945,541.8223 1121.6484,542.95511 1122.1562,543.85354 C 1122.664,544.71292 1123.4844,545.37698 1124.6172,545.84572 C 1125.4765,546.23635 1126.3164,546.52932 1127.1367,546.72463 C 1127.9961,546.91995 1128.9531,547.05667 1130.0078,547.13479 L 1130.0078,551.00197 M 1188.4844,537.40822 C 1186.0624,542.01761 1182.8203,545.68948 1178.7578,548.42385 C 1174.6953,551.15822 1170.0273,552.52541 1164.7539,552.52541 C 1160.1054,552.52541 1156.0234,551.7051 1152.5078,550.06447 C 1149.0312,548.42385 1146.1601,546.19729 1143.8945,543.38479 C 1141.6289,540.5723 1139.9297,537.29105 1138.7969,533.54104 C 1137.7031,529.79106 1137.1562,525.82622 1137.1562,521.64651 C 1137.1562,517.89654 1137.7422,514.22467 1138.9141,510.63088 C 1140.125,506.99811 1141.8828,503.7364 1144.1875,500.84572 C 1146.414,498.07234 1149.168,495.84578 1152.4492,494.16604 C 1155.7695,492.44735 1159.4804,491.58797 1163.582,491.58791 C 1167.8007,491.58797 1171.414,492.25203 1174.4219,493.5801 C 1177.4296,494.90828 1179.871,496.72468 1181.7461,499.02932 C 1183.5429,501.21687 1184.871,503.79499 1185.7305,506.76369 C 1186.6289,509.73248 1187.0781,512.95514 1187.0781,516.43166 L 1187.0781,520.29885 L 1148.8164,520.29885 C 1148.8164,524.08794 1149.168,527.52544 1149.8711,530.61135 C 1150.6133,533.6973 1151.7656,536.41214 1153.3281,538.75588 C 1154.8515,541.02152 1156.8437,542.81839 1159.3047,544.14651 C 1161.7656,545.43557 1164.6953,546.0801 1168.0938,546.0801 C 1171.5703,546.0801 1174.5586,545.27932 1177.0586,543.67776 C 1179.5976,542.03714 1182.039,539.10745 1184.3828,534.88869 L 1188.4844,537.40822 M 1175.5352,515.37697 C 1175.5351,513.18951 1175.3398,510.84576 1174.9492,508.34572 C 1174.5976,505.84577 1174.0117,503.75593 1173.1914,502.07619 C 1172.2929,500.27937 1171.0625,498.81453 1169.5,497.68166 C 1167.9375,496.5489 1165.9257,495.9825 1163.4648,495.98244 C 1159.3633,495.9825 1155.9453,497.70125 1153.2109,501.13869 C 1150.5156,504.53718 1149.0508,509.28327 1148.8164,515.37697 L 1175.5352,515.37697"
       id="flowRoot3667" />
    <path
       transform="matrix(0.8894808,0,0,0.8894808,-513.61382,-53.392432)"
       style="font-size:120px;font-style:normal;font-variant:normal;font-weight:normal;font-stretch:normal;text-align:start;line-height:100%;writing-mode:lr-tb;text-anchor:start;fill:#000000;fill-opacity:1;stroke:#000000;stroke-width:8.99401093;stroke-linecap:butt;stroke-linejoin:miter;stroke-miterlimit:4;stroke-opacity:1;filter:url(#filter3651);font-family:Georgia;-inkscape-font-specification:Georgia"
       d="M 993.30859,509.92776 C 993.30851,516.9981 991.98038,523.13091 989.32422,528.32619 C 986.66789,533.52152 983.21086,537.77933 978.95312,541.09963 C 974.65618,544.41995 969.83197,546.90042 964.48047,548.54104 C 959.12886,550.18166 953.60152,551.00197 947.89844,551.00197 L 913.44531,551.00197 L 913.44531,546.84182 C 914.57812,546.84182 916.04296,546.74417 917.83984,546.54885 C 919.67577,546.31448 920.88671,546.06057 921.47266,545.78713 C 922.64452,545.27932 923.48436,544.53714 923.99219,543.56057 C 924.53905,542.54495 924.81248,541.33402 924.8125,539.92776 L 924.8125,479.92776 C 924.81248,478.5997 924.57811,477.4083 924.10938,476.35354 C 923.67967,475.29892 922.80077,474.45908 921.47266,473.83401 C 920.26171,473.24815 918.95311,472.81846 917.54688,472.54494 C 916.14062,472.27158 914.92968,472.0958 913.91406,472.0176 L 913.91406,467.85744 L 950.24219,467.85744 C 955.24214,467.85753 960.16401,468.63878 965.00781,470.20119 C 969.8515,471.72471 974.07025,473.79502 977.66406,476.41213 C 982.5468,479.88876 986.37492,484.43954 989.14844,490.06447 C 991.92179,495.68953 993.30851,502.31062 993.30859,509.92776 M 978.95312,509.86916 C 978.95305,504.28327 978.21087,499.24421 976.72656,494.75197 C 975.24212,490.22078 973.07415,486.27548 970.22266,482.91604 C 967.52728,479.71298 964.20697,477.19345 960.26172,475.35744 C 956.35542,473.52158 951.99996,472.60362 947.19531,472.60354 C 945.59371,472.60362 943.77731,472.64268 941.74609,472.72072 C 939.75387,472.75986 938.2695,472.79893 937.29297,472.83791 L 937.29297,536.76369 C 937.29294,540.31839 938.32809,542.77933 940.39844,544.14651 C 942.46872,545.5137 945.65231,546.19729 949.94922,546.19729 C 954.91011,546.19729 959.24604,545.31839 962.95703,543.56057 C 966.66791,541.80276 969.67572,539.36136 971.98047,536.23635 C 974.40228,532.95512 976.16009,529.16606 977.25391,524.86916 C 978.38665,520.53325 978.95305,515.53326 978.95312,509.86916"
       id="flowRoot2862" />
    <path
       style="font-size:120px;font-style:normal;font-variant:normal;font-weight:normal;font-stretch:normal;text-align:start;line-height:100%;writing-mode:lr-tb;text-anchor:start;fill:#ffffff;fill-opacity:1;stroke:none;stroke-width:1px;stroke-linecap:butt;stroke-linejoin:miter;stroke-opacity:1;font-family:Georgia;-inkscape-font-specification:Georgia"
       d="M 369.9151,400.17852 C 369.91503,406.46745 368.73368,411.92247 366.37108,416.54357 C 364.00832,421.16472 360.93336,424.95196 357.14618,427.9053 C 353.32414,430.85866 349.0331,433.06499 344.27304,434.52429 C 339.51289,435.98359 334.59642,436.71324 329.52364,436.71324 L 298.87825,436.71324 L 298.87825,433.01287 C 299.88586,433.01287 301.1888,432.92601 302.7871,432.75228 C 304.42012,432.54381 305.49723,432.31796 306.01842,432.07474 C 307.06077,431.62306 307.80779,430.9629 308.25949,430.09426 C 308.74591,429.19089 308.98912,428.11379 308.98914,426.86295 L 308.98914,373.4941 C 308.98912,372.31281 308.78066,371.25309 308.36373,370.3149 C 307.98151,369.37683 307.19975,368.62981 306.01842,368.07382 C 304.9413,367.55271 303.77733,367.17051 302.52651,366.92722 C 301.27567,366.68407 300.19856,366.52772 299.29519,366.45816 L 299.29519,362.75778 L 331.60836,362.75778 C 336.05572,362.75786 340.43363,363.45277 344.7421,364.8425 C 349.05047,366.19764 352.80297,368.03914 355.99959,370.36701 C 360.34269,373.45941 363.74773,377.50724 366.21473,382.51051 C 368.68157,387.51389 369.91503,393.40322 369.9151,400.17852 M 357.14618,400.1264 C 357.14612,395.15786 356.48597,390.67571 355.1657,386.67995 C 353.84532,382.64954 351.91695,379.14027 349.38061,376.15212 C 346.98312,373.30306 344.02977,371.06198 340.52054,369.42889 C 337.04596,367.79592 333.17187,366.97942 328.89822,366.97934 C 327.47363,366.97942 325.85798,367.01416 324.05125,367.08357 C 322.2792,367.11839 320.95889,367.15314 320.09028,367.18781 L 320.09028,424.04857 C 320.09025,427.2104 321.011,429.39936 322.85254,430.61544 C 324.69401,431.83153 327.52575,432.43957 331.34777,432.43957 C 335.76039,432.43957 339.61712,431.65781 342.91797,430.09426 C 346.21873,428.53072 348.89412,426.35914 350.94415,423.57951 C 353.0983,420.66092 354.66184,417.29062 355.63477,413.46861 C 356.64232,409.6119 357.14612,405.16451 357.14618,400.1264"
       id="flowRoot2873" />
  </g>
</svg>
